HIERARCHY
ROOT Root
{
  OFFSET 0.0 0.0 0.0
  CHANNELS 6 Xposition Yposition Zposition Zrotation Yrotation Xrotation
  JOINT Hips
  {
    OFFSET 0.0 100.0 0.0
    CHANNELS 6 Xposition Yposition Zposition Zrotation Yrotation Xrotation
    JOINT Spine1
    {
      OFFSET -0.013727 5.003763 -0.053727
      CHANNELS 3 Zrotation Yrotation Xrotation
      JOINT Spine2
      {
        OFFSET -0.0 7.125301 -0.029825
        CHANNELS 3 Zrotation Yrotation Xrotation
        JOINT Chest
        {
          OFFSET -1e-06 7.550063 -0.815971
          CHANNELS 3 Zrotation Yrotation Xrotation
          JOINT Neck1
          {
            OFFSET -0.181677 26.311295 -0.553348
            CHANNELS 3 Zrotation Yrotation Xrotation
            JOINT Neck2
            {
              OFFSET -3e-06 7.709397 2.302585
              CHANNELS 3 Zrotation Yrotation Xrotation
              JOINT Head
              {
                OFFSET -5e-06 6.128916 1.953709
                CHANNELS 3 Zrotation Yrotation Xrotation
                JOINT HeadEnd
                {
                  OFFSET 0.003598 16.065403 -1.835379
                  CHANNELS 3 Zrotation Yrotation Xrotation
                }
                JOINT Jaw
                {
                  OFFSET 0.002637 0.475592 3.094941
                  CHANNELS 3 Zrotation Yrotation Xrotation
                }
                JOINT LeftEye
                {
                  OFFSET 3.206381 5.380205 7.586883
                  CHANNELS 3 Zrotation Yrotation Xrotation
                }
                JOINT RightEye
                {
                  OFFSET -3.22244 5.361869 7.558234
                  CHANNELS 3 Zrotation Yrotation Xrotation
                }
              }
            }
          }
          JOINT LeftShoulder
          {
            OFFSET 1.621652 23.237164 5.113413
            CHANNELS 3 Zrotation Yrotation Xrotation
            JOINT LeftArm
            {
              OFFSET 14.919846 2e-06 -5.502326
              CHANNELS 3 Zrotation Yrotation Xrotation
              JOINT LeftForeArm
              {
                OFFSET 28.739307 0.0 -0.002588
                CHANNELS 3 Zrotation Yrotation Xrotation
                JOINT LeftHand
                {
                  OFFSET 27.093981 -1e-06 0.002609
                  CHANNELS 3 Zrotation Yrotation Xrotation
                  JOINT LeftHandThumb1
                  {
                    OFFSET 2.276482 -1.392045 3.191413
                    CHANNELS 3 Zrotation Yrotation Xrotation
                    JOINT LeftHandThumb2
                    {
                      OFFSET 4.012836 -1.828127 1.641654
                      CHANNELS 3 Zrotation Yrotation Xrotation
                      JOINT LeftHandThumb3
                      {
                        OFFSET 2.798515 0.0 -3e-06
                        CHANNELS 3 Zrotation Yrotation Xrotation
                        JOINT LeftHandThumbEnd
                        {
                          OFFSET 3.180793 -4e-06 4e-06
                          CHANNELS 3 Zrotation Yrotation Xrotation
                        }
                      }
                    }
                  }
                  JOINT LeftHandIndex1
                  {
                    OFFSET 3.247555 -0.531998 2.296169
                    CHANNELS 3 Zrotation Yrotation Xrotation
                    JOINT LeftHandIndex2
                    {
                      OFFSET 6.364578 0.01206 0.1786
                      CHANNELS 3 Zrotation Yrotation Xrotation
                      JOINT LeftHandIndex3
                      {
                        OFFSET 3.662364 0.0 0.0
                        CHANNELS 3 Zrotation Yrotation Xrotation
                        JOINT LeftHandIndex4
                        {
                          OFFSET 2.329242 4e-06 4e-06
                          CHANNELS 3 Zrotation Yrotation Xrotation
                          JOINT LeftHandIndexEnd
                          {
                            OFFSET 2.759615 -0.180537 -0.113024
                            CHANNELS 3 Zrotation Yrotation Xrotation
                          }
                        }
                      }
                    }
                  }
                  JOINT LeftHandMiddle1
                  {
                    OFFSET 3.163495 0.240981 1.000332
                    CHANNELS 3 Zrotation Yrotation Xrotation
                    JOINT LeftHandMiddle2
                    {
                      OFFSET 6.19078 -0.259278 -1.002548
                      CHANNELS 3 Zrotation Yrotation Xrotation
                      JOINT LeftHandMiddle3
                      {
                        OFFSET 4.35652 -4e-06 -1e-06
                        CHANNELS 3 Zrotation Yrotation Xrotation
                        JOINT LeftHandMiddle4
                        {
                          OFFSET 2.996877 -8e-06 0.0
                          CHANNELS 3 Zrotation Yrotation Xrotation
                          JOINT LeftHandMiddleEnd
                          {
                            OFFSET 2.304287 -0.294569 -0.031741
                            CHANNELS 3 Zrotation Yrotation Xrotation
                          }
                        }
                      }
                    }
                  }
                  JOINT LeftHandRing1
                  {
                    OFFSET 2.882643 -0.053652 -0.322543
                    CHANNELS 3 Zrotation Yrotation Xrotation
                    JOINT LeftHandRing2
                    {
                      OFFSET 5.854541 -0.486202 -1.373841
                      CHANNELS 3 Zrotation Yrotation Xrotation
                      JOINT LeftHandRing3
                      {
                        OFFSET 4.350578 0.0 3e-06
                        CHANNELS 3 Zrotation Yrotation Xrotation
                        JOINT LeftHandRing4
                        {
                          OFFSET 2.651321 7e-06 2e-06
                          CHANNELS 3 Zrotation Yrotation Xrotation
                          JOINT LeftHandRingEnd
                          {
                            OFFSET 1.936105 0.077687 -7.1e-05
                            CHANNELS 3 Zrotation Yrotation Xrotation
                          }
                        }
                      }
                    }
                  }
                  JOINT LeftHandPinky1
                  {
                    OFFSET 2.8655 -0.310005 -1.600378
                    CHANNELS 3 Zrotation Yrotation Xrotation
                    JOINT LeftHandPinky2
                    {
                      OFFSET 5.087849 -1.331141 -1.77123
                      CHANNELS 3 Zrotation Yrotation Xrotation
                      JOINT LeftHandPinky3
                      {
                        OFFSET 3.070974 4e-06 0.0
                        CHANNELS 3 Zrotation Yrotation Xrotation
                        JOINT LeftHandPinky4
                        {
                          OFFSET 1.549672 0.0 1e-06
                          CHANNELS 3 Zrotation Yrotation Xrotation
                          JOINT LeftHandPinkyEnd
                          {
                            OFFSET 1.944893 -0.157802 0.057219
                            CHANNELS 3 Zrotation Yrotation Xrotation
                          }
                        }
                      }
                    }
                  }
                }
              }
            }
          }
          JOINT RightShoulder
          {
            OFFSET -1.380118 23.180309 5.214158
            CHANNELS 3 Zrotation Yrotation Xrotation
            JOINT RightArm
            {
              OFFSET -15.037196 1.2e-05 -5.545604
              CHANNELS 3 Zrotation Yrotation Xrotation
              JOINT RightForeArm
              {
                OFFSET -28.736639 2e-06 -0.002597
                CHANNELS 3 Zrotation Yrotation Xrotation
                JOINT RightHand
                {
                  OFFSET -27.133619 -0.0 0.002613
                  CHANNELS 3 Zrotation Yrotation Xrotation
                  JOINT RightHandThumb1
                  {
                    OFFSET -2.274032 -1.383988 3.163127
                    CHANNELS 3 Zrotation Yrotation Xrotation
                    JOINT RightHandThumb2
                    {
                      OFFSET -4.011429 -1.827466 1.640914
                      CHANNELS 3 Zrotation Yrotation Xrotation
                      JOINT RightHandThumb3
                      {
                        OFFSET -2.794935 -4e-06 -3e-06
                        CHANNELS 3 Zrotation Yrotation Xrotation
                        JOINT RightHandThumbEnd
                        {
                          OFFSET -3.183852 4e-06 1e-06
                          CHANNELS 3 Zrotation Yrotation Xrotation
                        }
                      }
                    }
                  }
                  JOINT RightHandIndex1
                  {
                    OFFSET -3.253266 -0.520057 2.282866
                    CHANNELS 3 Zrotation Yrotation Xrotation
                    JOINT RightHandIndex2
                    {
                      OFFSET -6.341917 0.012471 0.178266
                      CHANNELS 3 Zrotation Yrotation Xrotation
                      JOINT RightHandIndex3
                      {
                        OFFSET -3.654871 -8e-06 -0.0
                        CHANNELS 3 Zrotation Yrotation Xrotation
                        JOINT RightHandIndex4
                        {
                          OFFSET -2.327586 0.0 1e-06
                          CHANNELS 3 Zrotation Yrotation Xrotation
                          JOINT RightHandIndexEnd
                          {
                            OFFSET -2.76179 -0.180656 -0.113078
                            CHANNELS 3 Zrotation Yrotation Xrotation
                          }
                        }
                      }
                    }
                  }
                  JOINT RightHandMiddle1
                  {
                    OFFSET -3.168106 0.246593 1.00103
                    CHANNELS 3 Zrotation Yrotation Xrotation
                    JOINT RightHandMiddle2
                    {
                      OFFSET -6.180828 -0.258836 -1.000895
                      CHANNELS 3 Zrotation Yrotation Xrotation
                      JOINT RightHandMiddle3
                      {
                        OFFSET -4.348901 0.0 -0.0
                        CHANNELS 3 Zrotation Yrotation Xrotation
                        JOINT RightHandMiddle4
                        {
                          OFFSET -3.00024 -4e-06 -2e-06
                          CHANNELS 3 Zrotation Yrotation Xrotation
                          JOINT RightHandMiddleEnd
                          {
                            OFFSET -2.30252 -0.29437 -0.031706
                            CHANNELS 3 Zrotation Yrotation Xrotation
                          }
                        }
                      }
                    }
                  }
                  JOINT RightHandRing1
                  {
                    OFFSET -2.88569 -0.067952 -0.308858
                    CHANNELS 3 Zrotation Yrotation Xrotation
                    JOINT RightHandRing2
                    {
                      OFFSET -5.854198 -0.48613 -1.373731
                      CHANNELS 3 Zrotation Yrotation Xrotation
                      JOINT RightHandRing3
                      {
                        OFFSET -4.33881 -4e-06 -0.0
                        CHANNELS 3 Zrotation Yrotation Xrotation
                        JOINT RightHandRing4
                        {
                          OFFSET -2.654903 -4e-06 4e-06
                          CHANNELS 3 Zrotation Yrotation Xrotation
                          JOINT RightHandRingEnd
                          {
                            OFFSET -1.933568 0.077527 -5.2e-05
                            CHANNELS 3 Zrotation Yrotation Xrotation
                          }
                        }
                      }
                    }
                  }
                  JOINT RightHandPinky1
                  {
                    OFFSET -2.866425 -0.342796 -1.584145
                    CHANNELS 3 Zrotation Yrotation Xrotation
                    JOINT RightHandPinky2
                    {
                      OFFSET -5.091371 -1.332055 -1.772385
                      CHANNELS 3 Zrotation Yrotation Xrotation
                      JOINT RightHandPinky3
                      {
                        OFFSET -3.062664 -4e-06 1e-06
                        CHANNELS 3 Zrotation Yrotation Xrotation
                        JOINT RightHandPinky4
                        {
                          OFFSET -1.546529 4e-06 -2e-06
                          CHANNELS 3 Zrotation Yrotation Xrotation
                          JOINT RightHandPinkyEnd
                          {
                            OFFSET -1.945119 -0.157718 0.057211
                            CHANNELS 3 Zrotation Yrotation Xrotation
                          }
                        }
                      }
                    }
                  }
                }
              }
            }
          }
        }
      }
    }
    JOINT LeftLeg
    {
      OFFSET 10.043214 -8.434526 2.595655
      CHANNELS 3 Zrotation Yrotation Xrotation
      JOINT LeftShin
      {
        OFFSET -1e-06 -43.221752 -0.802913
        CHANNELS 3 Zrotation Yrotation Xrotation
        JOINT LeftFoot
        {
          OFFSET 1e-06 -42.155094 -3.481523
          CHANNELS 3 Zrotation Yrotation Xrotation
          JOINT LeftToeBase
          {
            OFFSET 0.0 -5.059472 13.231529
            CHANNELS 3 Zrotation Yrotation Xrotation
            JOINT LeftToeEnd
            {
              OFFSET -0.009607 -1.647619 6.513017
              CHANNELS 3 Zrotation Yrotation Xrotation
            }
          }
        }
      }
    }
    JOINT RightLeg
    {
      OFFSET -10.047278 -8.29526 2.620317
      CHANNELS 3 Zrotation Yrotation Xrotation
      JOINT RightShin
      {
        OFFSET 1e-06 -43.362206 -0.805556
        CHANNELS 3 Zrotation Yrotation Xrotation
        JOINT RightFoot
        {
          OFFSET 2e-06 -42.117393 -3.478398
          CHANNELS 3 Zrotation Yrotation Xrotation
          JOINT RightToeBase
          {
            OFFSET -0.0 -5.079609 13.284196
            CHANNELS 3 Zrotation Yrotation Xrotation
            JOINT RightToeEnd
            {
              OFFSET 0.009532 -1.634378 6.460591
              CHANNELS 3 Zrotation Yrotation Xrotation
            }
          }
        }
      }
    }
  }
}
MOTION
Frames: 4
Frame Time: 0.03333333333333333
4.527978 0.0 -4.413087 0.0 -79.008324 0.0 0.0 99.607368 0.0 -0.065809 -0.000272 0.427672 2.125363 0.216787 1.964145 -0.586578 -1.106021 -4.255883 -0.918081 -3.57784 10.801589 7.813032 -0.347553 8.526529 -2.731395 -6.636197 -3.581756 0.73529 -8.504264 -13.429945 7.7e-05 -2.3e-05 6e-06 0.008181 0.028581 0.020911 0.681774 -3.705661 -10.578261 -0.660786 3.737502 -10.62267 -11.012321 -4.29989 15.510916 -54.723194 -8.578256 12.938574 1.094648 -47.77808 -0.808339 1.941795 1.679258 4.251242 -5.882111 9.861292 0.702592 -10.936877 -0.360574 7.156211 0.0 8.77483 1e-06 -16.118433 18.294834 6.050004 -1.844034 2.498507 -2.50728 -10.163607 4.67895 4.621109 -20.976038 -2e-06 -2e-06 -21.226301 2.451698 -3.594005 0.0 -5e-06 -1e-06 -1.362683 2.2408 -0.746325 -21.334929 0.584911 3.008321 -13.821221 -3e-06 -2e-06 -23.887188 -0.249082 -0.839488 -60.847507 2.783782 -1.113655 -0.294026 1.679689 0.833255 -14.218218 0.093215 1.300579 -34.212074 -0.287566 0.967167 -20.033228 0.964535 1.212839 0.0 -0.0 1e-06 -3.440391 0.788234 0.501657 -15.928196 -3.16731 2.999707 -6.338829 -2e-06 -2e-06 -18.123459 3.648184 -4.905675 -3e-06 -1e-06 -2e-06 14.343027 7.041063 16.259687 59.548588 2.117217 19.517307 0.101829 32.240311 0.140323 -0.378065 -6.134564 -5.529444 2.243543 -5.255039 -3.180158 14.2829 -0.826596 6.952507 -1e-06 -12.690612 -1e-06 16.223516 -18.044838 2.624428 1.665667 -1.955922 -2.878297 4.727802 -4.170591 4.993924 11.020534 2e-06 0.0 12.109059 -3.735719 -2.866785 -1e-06 1e-06 -1e-06 1.291986 -1.92855 -1.498089 14.800136 0.567467 3.865609 14.24258 -1.341738 -6.660661 19.631979 0.143924 -0.648246 50.192154 -0.521107 -6.465331 0.353029 -1.511151 -0.031939 20.222803 3.68431 2.316633 18.787287 3e-06 -1e-06 10.751636 -0.47987 1.397907 1e-06 2e-06 -1e-06 3.273808 0.305947 -0.58011 21.486824 11.830379 2.266133 8.162933 1e-06 -2e-06 18.399097 -3.798988 -4.94058 3e-06 1e-06 -2e-06 9.798732 31.561785 -16.133902 -0.04862 0.042059 50.568592 -5.279239 14.06293 -1.624372 1.857959 -2.201266 -4.493957 -0.0 0.0 2e-06 -2.308952 -26.303127 -10.242459 -0.052607 0.005937 16.727417 4.187182 -3.148781 -5.895632 -1.415493 0.845814 -1.771516 0.0 0.0 -1e-06 
4.09795 0.0 -4.322317 0.0 -80.371117 0.0 0.0 99.706116 0.0 0.404795 -3.9e-05 0.374669 2.361703 0.187146 2.133254 -0.525196 -0.984339 -4.223173 -0.818813 -3.47799 10.945382 7.300384 -0.20325 8.467014 -2.561384 -5.98511 -3.568519 0.16975 -7.685056 -13.801734 7.7e-05 -2.3e-05 6e-06 0.005491 0.034561 0.014302 0.673829 -3.702711 -10.584357 -0.658838 3.746345 -10.626373 -11.291066 -3.8663 15.7709 -55.390491 -8.814606 13.603707 0.870467 -48.967812 -0.667073 1.479907 1.013927 5.176718 -5.882111 9.86129 0.702591 -10.936878 -0.360575 7.156206 1e-06 8.774829 -1e-06 -16.180424 18.250996 6.03811 -1.844034 2.498506 -2.507278 -10.163607 4.678947 4.621109 -20.976038 -3e-06 -0.0 -21.226301 2.451697 -3.594003 3e-06 -6e-06 -2e-06 -1.362682 2.240798 -0.746322 -21.334927 0.58491 3.008323 -13.821221 -3e-06 -2e-06 -23.887184 -0.249079 -0.839485 -60.851734 2.843206 -1.090384 -0.294025 1.679689 0.833256 -14.218217 0.093215 1.30058 -34.21207 -0.287564 0.967166 -20.033226 0.964536 1.212841 0.0 -1e-06 -0.0 -3.44039 0.788232 0.501657 -15.928196 -3.167311 2.999706 -6.33883 -1e-06 0.0 -18.123459 3.648182 -4.905675 -4e-06 -1e-06 0.0 14.343734 7.354897 16.226099 58.865242 2.668275 18.673105 0.018109 33.016232 0.087088 -0.940806 -5.625711 -6.78352 2.243545 -5.255041 -3.18016 14.282904 -0.826598 6.952505 -1e-06 -12.690614 0.0 16.245195 -18.107885 2.590725 1.665668 -1.955923 -2.8783 4.727803 -4.170592 4.993927 11.020536 2e-06 -2e-06 12.109064 -3.735719 -2.866788 -1e-06 1e-06 1e-06 1.291987 -1.928551 -1.498088 14.800142 0.567467 3.865608 14.242586 -1.341739 -6.660665 19.631985 0.143925 -0.648251 50.203697 -0.570386 -6.497322 0.35303 -1.511152 -0.031939 20.222809 3.68431 2.31663 18.787289 2e-06 -5e-06 10.751641 -0.479868 1.397904 -1e-06 2e-06 -2e-06 3.27381 0.305947 -0.580111 21.486832 11.830383 2.266132 8.162937 1e-06 -2e-06 18.399099 -3.798988 -4.940583 2e-06 0.0 -2e-06 10.240829 28.297049 -16.722801 -0.093918 -0.088608 48.978359 -6.385049 9.179745 -1.990259 1.828512 -2.150138 -4.208067 0.0 -0.0 3e-06 -2.875524 -25.49431 -9.996983 -0.0512 0.026346 16.54402 3.937657 -2.56647 -5.873662 -1.4136 0.877799 -1.585974 -0.0 1e-06 -1e-06 
3.652596 0.0 -4.14042 0.0 -81.49453 0.0 0.0 99.744858 0.0 0.634568 0.000125 0.465806 2.671218 0.118548 2.250322 -0.438815 -0.86015 -4.220652 -0.635476 -3.391355 11.038752 6.813072 -0.043024 8.380102 -2.437507 -5.415299 -3.56811 -0.409928 -6.943921 -14.201978 7.7e-05 -2.2e-05 6e-06 0.005133 0.042318 0.011271 0.666741 -3.693369 -10.580885 -0.653027 3.752854 -10.615497 -11.548717 -3.499154 16.0229 -55.900497 -8.972009 14.689459 0.709117 -50.042961 -0.578596 0.915977 0.5163 6.334013 -5.882112 9.861291 0.702591 -10.936879 -0.360573 7.15621 -1e-06 8.774831 -0.0 -16.263311 18.190073 6.018128 -1.844035 2.498506 -2.507279 -10.163605 4.678948 4.62111 -20.976034 -0.0 0.0 -21.226301 2.4517 -3.594003 3e-06 -5e-06 -0.0 -1.362682 2.240799 -0.746323 -21.334927 0.584915 3.008323 -13.82122 0.0 -0.0 -23.887184 -0.249077 -0.839485 -60.852936 2.878808 -1.059092 -0.294025 1.679688 0.833256 -14.218217 0.093217 1.300585 -34.212067 -0.287559 0.967167 -20.033226 0.964537 1.212842 0.0 -0.0 0.0 -3.44039 0.788236 0.501656 -15.928198 -3.167309 2.999708 -6.33883 -0.0 -1e-06 -18.123459 3.648186 -4.905676 -3e-06 1e-06 -1e-06 14.360913 7.676391 16.127689 58.137772 3.120298 17.615948 -0.008715 33.893875 0.041322 -1.780116 -5.059422 -8.456363 2.243542 -5.25504 -3.180159 14.282898 -0.826595 6.952508 -3e-06 -12.69061 1e-06 16.226494 -18.12434 2.581434 1.665667 -1.955922 -2.8783 4.727801 -4.17059 4.993927 11.020532 3e-06 -1e-06 12.109058 -3.735717 -2.866787 1e-06 -1e-06 -1e-06 1.291986 -1.928551 -1.498089 14.800136 0.567468 3.865611 14.242579 -1.341737 -6.660661 19.631977 0.143925 -0.648245 50.185528 -0.594035 -6.51437 0.353029 -1.511152 -0.03194 20.222803 3.684312 2.31663 18.787287 5e-06 1e-06 10.751633 -0.47987 1.397908 -1e-06 1e-06 -0.0 3.273808 0.305947 -0.580109 21.486826 11.830384 2.266133 8.162931 0.0 0.0 18.399092 -3.798987 -4.940576 3e-06 -1e-06 -1e-06 10.559741 25.27351 -16.866131 -0.140136 -0.157349 44.636265 -7.258487 5.54387 -1.977136 1.792685 -2.081442 -3.976914 0.0 -0.0 3e-06 -3.296211 -24.850122 -9.903094 -0.03844 0.017009 16.510681 3.931081 -2.000737 -5.921626 -1.412113 0.90093 -1.38857 -0.0 1e-06 -1e-06 
3.207075 0.0 -3.864324 0.0 -82.428841 0.0 0.0 99.757065 0.0 0.650241 -0.000167 0.672398 3.036073 0.033999 2.291859 -0.338792 -0.742006 -4.22191 -0.380486 -3.318798 11.077563 6.32904 0.16585 8.297005 -2.329857 -4.984747 -3.593573 -0.99385 -6.245787 -14.471212 7.7e-05 -2.2e-05 6e-06 0.00646 0.044047 0.010895 0.659207 -3.687582 -10.578018 -0.643333 3.751463 -10.602175 -11.812593 -3.19254 16.172979 -56.224171 -9.023367 16.041477 0.626693 -50.880394 -0.493091 0.272778 0.250974 7.541844 -5.882106 9.861284 0.702589 -10.936869 -0.360574 7.156202 0.0 8.774824 -1e-06 -16.333675 18.117901 6.009383 -1.844034 2.498503 -2.507276 -10.163599 4.678944 4.621105 -20.976021 -1e-06 1e-06 -21.226286 2.451698 -3.594 3e-06 -5e-06 1e-06 -1.362682 2.240798 -0.746322 -21.334911 0.58491 3.008319 -13.821213 -1e-06 1e-06 -23.887167 -0.249076 -0.839483 -60.880764 2.8901 -0.981146 -0.294024 1.679686 0.833256 -14.218208 0.093215 1.300581 -34.212048 -0.287564 0.967166 -20.033211 0.964536 1.212841 -1e-06 -1e-06 1e-06 -3.440388 0.788234 0.501654 -15.928185 -3.167307 2.999706 -6.338826 -0.0 -1e-06 -18.123444 3.648183 -4.905671 -4e-06 1e-06 -3e-06 14.338398 8.043806 16.019188 57.317314 3.593167 16.950018 -0.020185 34.669178 -0.003513 -2.5015 -4.534585 -10.001003 2.243541 -5.255035 -3.180155 14.282892 -0.826596 6.952503 -2e-06 -12.690601 1e-06 16.238529 -18.147373 2.569243 1.665666 -1.955921 -2.878298 4.727799 -4.170587 4.993924 11.020525 3e-06 -1e-06 12.10905 -3.735717 -2.866781 1e-06 0.0 -2e-06 1.291985 -1.928549 -1.49809 14.800129 0.567467 3.865608 14.242574 -1.341737 -6.660657 19.631969 0.143924 -0.648245 50.1661 -0.589698 -6.511595 0.353029 -1.51115 -0.031941 20.22279 3.684309 2.316629 18.787271 3e-06 1e-06 10.751629 -0.479868 1.397906 0.0 -0.0 0.0 3.273807 0.305946 -0.580111 21.486813 11.830372 2.266132 8.162928 1e-06 -1e-06 18.399082 -3.798986 -4.940576 3e-06 1e-06 -2e-06 10.784967 22.542963 -16.600145 -0.191215 -0.192621 38.285454 -8.041859 2.761407 -1.636456 1.759181 -2.015552 -3.880286 0.0 -2e-06 2e-06 -3.422187 -24.373236 -9.947039 -0.012746 -0.012335 16.398096 3.97071 -1.445428 -5.92062 -1.411936 0.9047 -1.227479 0.0 0.0 -1e-06 
